<?xml version="1.0" encoding="utf-8"?>
<!-- Generator: Adobe Illustrator 15.0.0, SVG Export Plug-In . SVG Version: 6.00 Build 0)  -->
<!DOCTYPE svg PUBLIC "-//W3C//DTD SVG 1.1//EN" "http://www.w3.org/Graphics/SVG/1.1/DTD/svg11.dtd">
<svg version="1.1" id="Layer_1" xmlns="http://www.w3.org/2000/svg" xmlns:xlink="http://www.w3.org/1999/xlink" x="0px" y="0px"
	 width="718.548px" height="191.814px" viewBox="0 0 718.548 191.814" enable-background="new 0 0 718.548 191.814"
	 xml:space="preserve">
<polygon fill="#19BBDA" points="372.453,43.988 345.062,43.988 284.684,114.953 284.684,43.988 262.479,43.988 251.482,43.988 
	251.482,65.981 262.479,65.981 262.479,167.241 251.482,167.241 251.482,189.235 262.479,189.235 284.684,189.235 284.684,147.115 
	306.884,120.968 351.914,189.235 378.055,189.235 321.619,103.747 "/>
<rect x="251.482" fill="#19BBDA" width="126.573" height="21.994"/>
<polygon fill="#19BBDA" points="0,65.981 0,76.979 21.994,76.979 21.994,65.981 40.876,65.981 40.876,189.235 63.076,189.235 
	63.076,65.981 81.959,65.981 81.959,76.979 103.952,76.979 103.952,65.981 103.952,43.988 0,43.988 "/>
<polygon fill="#19BBDA" points="493.918,65.981 493.918,76.979 515.912,76.979 515.912,65.981 534.794,65.981 534.794,189.235 
	556.995,189.235 556.995,65.981 575.877,65.981 575.877,76.979 597.871,76.979 597.871,65.981 597.871,43.988 493.918,43.988 "/>
<polygon fill="#19BBDA" points="125.524,189.235 229.91,189.235 229.91,167.241 229.91,154.216 207.917,154.216 207.917,167.241 
	147.725,167.241 147.725,126.984 215.386,126.984 215.386,104.99 147.725,104.99 147.725,65.982 207.917,65.982 207.917,66.222 
	207.917,76.978 207.917,79.201 229.91,79.201 229.91,76.978 229.91,66.222 229.91,65.982 229.91,43.988 125.524,43.988 "/>
<g>
	<defs>
		<rect id="SVGID_1_" x="-44.697" y="-21.993" width="802.85" height="255.215"/>
	</defs>
	<clipPath id="SVGID_2_">
		<use xlink:href="#SVGID_1_"  overflow="visible"/>
	</clipPath>
	<path clip-path="url(#SVGID_2_)" fill="#19BBDA" d="M446.873,108.313l-24.904-6.021c-9.544-2.28-16.39-8.089-16.39-19.295
		c0-11,7.264-19.089,24.484-19.089c14.111,0,22.824,7.052,25.729,18.882h23.654c-3.528-24.279-20.338-40.876-49.59-40.876
		c-25.729,0-46.896,13.068-46.896,41.083c0,20.75,10.793,36.104,29.882,40.669l25.729,6.222
		c14.523,3.528,20.538,10.169,20.538,20.963c0,11.2-9.544,18.464-24.479,18.464c-14.979,0-25.449-6.92-29.864-19.617h-23.382
		c4.126,24.167,21.731,41.611,52.828,41.611c30.295,0,47.516-16.597,47.516-40.046S469.902,113.916,446.873,108.313"/>
	<path clip-path="url(#SVGID_2_)" fill="#19BBDA" d="M666.471,41.914c-31.119,0-52.076,19.92-52.076,51.251v46.892
		c0,31.332,20.957,51.251,52.076,51.251c31.12,0,52.077-19.919,52.077-51.251V93.165C718.548,61.834,697.591,41.914,666.471,41.914
		 M696.348,140.057c0,20.338-15.354,29.258-29.877,29.258c-14.523,0-29.876-8.92-29.876-29.258V93.165
		c0-20.337,15.353-29.257,29.876-29.257c14.522,0,29.877,8.92,29.877,29.257V140.057z"/>
</g>
</svg>
